<?xml version="1.0" encoding="UTF-8" standalone="no"?>
<!-- Generator: Adobe Illustrator 13.0.0, SVG Export Plug-In . SVG Version: 6.00 Build 14948)  -->

<svg
   xmlns:dc="http://purl.org/dc/elements/1.1/"
   xmlns:cc="http://creativecommons.org/ns#"
   xmlns:rdf="http://www.w3.org/1999/02/22-rdf-syntax-ns#"
   xmlns:svg="http://www.w3.org/2000/svg"
   xmlns="http://www.w3.org/2000/svg"
   xmlns:sodipodi="http://sodipodi.sourceforge.net/DTD/sodipodi-0.dtd"
   xmlns:inkscape="http://www.inkscape.org/namespaces/inkscape"
   version="1.1"
   id="Layer_1"
   x="0px"
   y="0px"
   width="128"
   height="128"
   viewBox="0 0 128 128"
   xml:space="preserve"
   inkscape:version="0.48.1 r9760"
   sodipodi:docname="java.svg"
   inkscape:export-filename="/Users/andrew/Downloads/java.png"
   inkscape:export-xdpi="90"
   inkscape:export-ydpi="90"><metadata
   id="metadata33"><rdf:RDF><cc:Work
       rdf:about=""><dc:format>image/svg+xml</dc:format><dc:type
         rdf:resource="http://purl.org/dc/dcmitype/StillImage" /><dc:title></dc:title></cc:Work></rdf:RDF></metadata><defs
   id="defs31" /><sodipodi:namedview
   pagecolor="#ffffff"
   bordercolor="#666666"
   borderopacity="1"
   objecttolerance="10"
   gridtolerance="10"
   guidetolerance="10"
   inkscape:pageopacity="0"
   inkscape:pageshadow="2"
   inkscape:window-width="1280"
   inkscape:window-height="671"
   id="namedview29"
   showgrid="false"
   inkscape:zoom="3.5390625"
   inkscape:cx="64"
   inkscape:cy="64"
   inkscape:window-x="0"
   inkscape:window-y="0"
   inkscape:window-maximized="1"
   inkscape:current-layer="Layer_1" />



<g
   id="g3012"
   transform="matrix(0.34500504,0,0,0.34500504,11.775435,-1.5201777)"><path
     id="path5"
     d="m 257.46875,205.03125 c -4.46225,0.009 -9.20177,0.79112 -14.0625,2.5 -3.904,1.386 -5.9375,4.59375 -5.9375,4.59375 0,0 2.46275,-1.01025 7.96875,-2.15625 22.464,-4.683 54.63925,30.079 -14.96875,66.25 -0.322,0.861 -1.40625,1.84475 -1.40625,1.84375 82.79695,-21.76598 64.74174,-73.10176 28.40625,-73.03125 z M 108.3125,208.5625 c -5.45248,-0.12518 -29.0385,0.22175 -57.21875,13.84375 -38.082,18.421 94.2125,26.8215 162.6875,8.8125 7.119,-4.861 16.96875,-9.09375 16.96875,-9.09375 0,0 -28.0315,5.021 -55.9375,7.375 -34.146,2.861 -70.7985,3.3995 -89.1875,0.9375 -43.552,-5.816 23.875,-21.8125 23.875,-21.8125 0,0 -0.40857,-0.0446 -1.1875,-0.0625 z m -14.5,42.15625 c -62.844,20.858 34.96725,44.4905 122.78125,18.8125 -9.334,-3.291 -15.28125,-9.3125 -15.28125,-9.3125 -42.917,8.264 -67.719,8.02125 -99.125,4.78125 -24.286,-2.512 -8.375,-14.28125 -8.375,-14.28125 z m 8.875,40.59375 c -57.047,15.94 34.6825,48.878 107.3125,17.75 -11.896,-4.626 -20.40625,-9.96875 -20.40625,-9.96875 -32.399,6.132 -47.4125,6.604 -76.8125,3.25 -24.268,-2.79 -10.09375,-11.03125 -10.09375,-11.03125 z M 63.0625,318.25 c -25.619256,0.7894 -75.721875,23.82331 -29.90625,31.25 148.084,24.015 269.94225,-10.799 231.53125,-28.125 0,0 10.4845,8.6245 -11.5625,15.3125 -41.923,12.7 -174.4865,16.56025 -211.3125,0.53125 -13.238,-5.759 11.59725,-13.7605 19.40625,-15.4375 C 69.36275,320.01525 74,320.34375 74,320.34375 71.699687,318.72328 67.806807,318.10381 63.0625,318.25 z m 225.125,22 c 0,0 -4.67075,11.982 -55.21875,21.5 -57.028,10.732 -127.37675,9.503 -169.09375,2.625 10e-4,-10e-4 8.55575,7.059 52.46875,9.875 66.815,4.277 169.41375,-2.385 171.84375,-34 z"
     style="fill:#5382a1"
     inkscape:connector-curvature="0" /><path
     id="path9"
     d="m 188.5,4.40625 c 15.554,61.255 -54.843,79.75525 -80.25,117.90625 -17.31,25.99 8.49725,53.903 43.65625,85.625 C 138.19625,176.9495 91.7045,149.818 151.9375,102.25 227.0505,42.951 188.5,4.40625 188.5,4.40625 z m 46.46875,75.78125 c 0,0 -127.00775,31.725 -66.34375,101.625 17.896,20.604 -4.6875,39.125 -4.6875,39.125 0,0 45.4315,-23.4375 24.5625,-52.8125 -19.491,-27.394 -34.44825,-41.0085 46.46875,-87.9375 z"
     style="fill:#e76f00"
     inkscape:connector-curvature="0" /></g>









</svg>