<?xml version="1.0" encoding="UTF-8" standalone="no"?>
<!-- Created with Inkscape (http://www.inkscape.org/) -->
<svg
   xmlns:dc="http://purl.org/dc/elements/1.1/"
   xmlns:cc="http://creativecommons.org/ns#"
   xmlns:rdf="http://www.w3.org/1999/02/22-rdf-syntax-ns#"
   xmlns:svg="http://www.w3.org/2000/svg"
   xmlns="http://www.w3.org/2000/svg"
   xmlns:sodipodi="http://sodipodi.sourceforge.net/DTD/sodipodi-0.dtd"
   xmlns:inkscape="http://www.inkscape.org/namespaces/inkscape"
   width="744.09448819"
   height="1052.3622047"
   id="svg2"
   sodipodi:version="0.32"
   inkscape:version="0.46"
   sodipodi:docbase="/Users/xah/web/emacs/lisp_logo"
   sodipodi:docname="emacs_logo.svg"
   inkscape:output_extension="org.inkscape.output.svg.inkscape">
  <defs
     id="defs4">
    <inkscape:perspective
       sodipodi:type="inkscape:persp3d"
       inkscape:vp_x="0 : 526.18109 : 1"
       inkscape:vp_y="0 : 1000 : 0"
       inkscape:vp_z="744.09448 : 526.18109 : 1"
       inkscape:persp3d-origin="372.04724 : 350.78739 : 1"
       id="perspective20" />
    <linearGradient
       id="linearGradient6891">
      <stop
         style="stop-color:#ff003b;stop-opacity:1;"
         offset="0"
         id="stop6893" />
      <stop
         style="stop-color:#cfb9b9;stop-opacity:0;"
         offset="1"
         id="stop6895" />
    </linearGradient>
    <linearGradient
       id="linearGradient5105">
      <stop
         style="stop-color:#643ec4;stop-opacity:1;"
         offset="0"
         id="stop5107" />
      <stop
         style="stop-color:lime;stop-opacity:0;"
         offset="1"
         id="stop5109" />
    </linearGradient>
    <inkscape:perspective
       id="perspective2568"
       inkscape:persp3d-origin="372.04724 : 350.78739 : 1"
       inkscape:vp_z="744.09448 : 526.18109 : 1"
       inkscape:vp_y="0 : 1000 : 0"
       inkscape:vp_x="0 : 526.18109 : 1"
       sodipodi:type="inkscape:persp3d" />
    <inkscape:perspective
       id="perspective2527"
       inkscape:persp3d-origin="372.04724 : 350.78739 : 1"
       inkscape:vp_z="744.09448 : 526.18109 : 1"
       inkscape:vp_y="0 : 1000 : 0"
       inkscape:vp_x="0 : 526.18109 : 1"
       sodipodi:type="inkscape:persp3d" />
    <inkscape:perspective
       id="perspective2768"
       inkscape:persp3d-origin="372.04724 : 350.78739 : 1"
       inkscape:vp_z="744.09448 : 526.18109 : 1"
       inkscape:vp_y="0 : 1000 : 0"
       inkscape:vp_x="0 : 526.18109 : 1"
       sodipodi:type="inkscape:persp3d" />
    <inkscape:perspective
       id="perspective2835"
       inkscape:persp3d-origin="372.04724 : 350.78739 : 1"
       inkscape:vp_z="744.09448 : 526.18109 : 1"
       inkscape:vp_y="0 : 1000 : 0"
       inkscape:vp_x="0 : 526.18109 : 1"
       sodipodi:type="inkscape:persp3d" />
    <inkscape:perspective
       id="perspective3761"
       inkscape:persp3d-origin="372.04724 : 350.78739 : 1"
       inkscape:vp_z="744.09448 : 526.18109 : 1"
       inkscape:vp_y="0 : 1000 : 0"
       inkscape:vp_x="0 : 526.18109 : 1"
       sodipodi:type="inkscape:persp3d" />
  </defs>
  <sodipodi:namedview
     id="base"
     pagecolor="#ffffff"
     bordercolor="#666666"
     borderopacity="1.0"
     gridtolerance="10000"
     guidetolerance="10"
     objecttolerance="10"
     inkscape:pageopacity="0.0"
     inkscape:pageshadow="2"
     inkscape:zoom="1"
     inkscape:cx="525.56151"
     inkscape:cy="515.09945"
     inkscape:document-units="px"
     inkscape:current-layer="layer1"
     inkscape:window-width="1156"
     inkscape:window-height="790"
     inkscape:window-x="239"
     inkscape:window-y="22"
     showgrid="false" />
  <metadata
     id="metadata7">
    <rdf:RDF>
      <cc:Work
         rdf:about="">
        <dc:format>image/svg+xml</dc:format>
        <dc:type
           rdf:resource="http://purl.org/dc/dcmitype/StillImage" />
      </cc:Work>
    </rdf:RDF>
  </metadata>
  <g
     inkscape:label="Layer 1"
     inkscape:groupmode="layer"
     id="layer1">
    <path
       sodipodi:nodetypes="cccccccccscscccsccccsccsscsczccccccsccccccccscscscccsccsccccccccc"
       style="fill:#1f59b5;fill-opacity:1;stroke:#1f59b5;stroke-opacity:1"
       d="M 97.96269,571.8895 C 86.48358,568.1226 82.99861,562.4431 82.00353,555.9723 C 80.63571,539.0176 107.58094,510.2883 123.18177,491.7995 C 128.32736,485.2802 148.70904,467.3603 153.40626,462.5649 C 139.07961,460.8051 134.65506,459.5023 131.94302,450.9657 C 127.14832,429.9558 201.46682,372.3937 239.37785,353.3082 C 255.27664,345.357 283.07925,338.4042 289.9206,340.2443 C 308.28422,350.7463 259.74883,380.9338 245.37241,391.7383 C 229.58229,394.2188 305.73331,345.1386 255.25347,361.3622 C 237.9017,366.8054 221.35321,375.19055 205.77613,385.18746 C 190.19905,395.18438 178.86115,404.23239 165.39503,416.12264 C 155.16839,427.00979 160.33898,432.32515 166.87713,434.61415 C 173.41528,436.90315 182.80325,436.72645 188.72583,435.7508 C 199.80265,434.5587 244.47446,410.1717 226.32843,426.5681 C 199.09018,448.652 161.45422,462.4657 140.22402,485.0379 C 136.33216,488.6266 120.71104,503.192 114.37419,516.259 C 108.03734,529.326 107.80278,541.7785 124.07742,543.7933 C 156.53888,544.454 178.20127,514.8671 202.55208,497.5201 C 213.06863,485.5726 265.43918,450.0229 241.32778,489.1057 C 231.30562,502.6683 207.84334,537.3079 236.63553,510.2962 C 244.60841,504.0765 256.69306,491.9048 268.81113,483.5959 C 280.9292,475.287 296.43786,469.3323 301.01041,476.0947 C 302.22321,477.9153 296.52868,495.0901 297.21339,496.2309 C 299.40071,495.6039 307.92707,488.7864 312.42479,485.4851 C 316.59476,482.4243 326.11493,475.8549 332.81371,472.526 C 339.5125,469.1971 348.89624,469.8948 350.37767,471.8581 C 352.94398,475.9135 345.73377,489.3694 342.00091,498.8918 C 338.26806,508.4141 335.08765,518.1691 340.47443,525.5536 C 350.95095,536.2671 384.33063,506.5187 398.80596,496.4367 C 413.28129,486.3546 438.94002,470.2879 459.03341,465.2885 C 440.66812,487.6922 389.46883,501.259 391.86083,532.7541 C 392.1018,535.6929 407.67465,529.704 415.1462,527.6409 C 403.49181,536.6468 352.96286,570.6743 364.14962,539.3622 C 366.18644,534.0054 367.93374,532.2582 369.55024,527.9912 C 366.14759,524.2769 340.6672,549.0122 322.6697,551.4988 C 300.64907,554.179 304.83897,530.5659 313.05344,515.169 C 324.32906,494.0344 319.75156,487.1408 305.31844,501.2847 C 287.38592,519.8544 272.1526,546.5077 247.81108,555.83 C 250.38777,541.6799 291.40185,487.6008 254.08054,504.4865 C 229.60485,523.436 210.72065,549.8974 184.12067,565.6679 C 185.12411,543.9278 212.09742,520.0607 218.2362,496.3364 C 182.18985,520.0749 146.41155,558.4404 123.3023,567.1196 C 119.74891,568.7143 104.74406,574.033 97.96269,571.8895 z M 433.70711,550.3535 C 421.21062,548.0802 418.33765,525.5828 427.33794,510.8475 C 436.33823,496.1121 456.3279,482.2446 468.52025,477.4322 C 466.43771,480.7543 457.09654,497.9805 454.39382,512.0334 C 451.6911,526.0864 458.27847,533.7839 479.39095,527.7717 C 497.6881,522.3738 506.48922,508.0749 519.60481,496.5739 C 532.72041,485.0729 547.67561,476.0164 564.13883,468.7286 C 571.91842,466.1479 581.90613,465.1151 583.81062,466.6866 C 582.17958,469.3188 574.94018,472.9644 564.52903,476.9123 C 554.27388,480.7859 541.26414,489.3856 531.74226,500.4563 C 519.62141,514.5488 522.58429,527.4331 537.48545,531.2471 C 541.08524,532.8086 583.23785,523.6823 554.78715,535.377 C 545.50905,538.7399 525.27954,546.3104 510.79521,547.6743 C 496.31088,549.0383 487.57172,544.1956 490.66773,526.9749 C 478.29536,534.9593 454.17305,553.7999 433.70711,550.3535 z M 575.70715,544.4674 C 580.29315,521.5715 628.13725,554.0405 639.41175,524.0646 C 653.89175,485.6507 598.19515,503.265 579.86735,495.0806 C 588.25575,476.4599 644.63275,460.5728 642.53065,468.2136 C 624.39665,469.7912 591.14165,496.3143 629.19655,491.443 C 651.39385,485.9212 672.81665,498.5076 662.33535,521.1034 C 640.63115,545.2859 605.08445,543.1969 575.70715,544.4674 z"
       id="path5242" />
    <text
       xml:space="preserve"
       style="font-size:12px;font-style:normal;font-weight:normal;fill:#000000;fill-opacity:1;stroke:none;stroke-width:1px;stroke-linecap:butt;stroke-linejoin:miter;stroke-opacity:1;font-family:Bitstream Vera Sans"
       x="44"
       y="52.362183"
       id="text2853"><tspan
         sodipodi:role="line"
         id="tspan2855"
         x="44"
         y="52.362183">http://xahlee.org/emacs/emacs_logo.html</tspan></text>
    <path
       id="path5258"
       style="fill:#a13423;fill-opacity:1;stroke:#a13423;stroke-opacity:1;opacity:1"
       d="M 383.57396,439.65528 C 388.10362,439.04531 391.87566,454.38279 400.21001,450.24676 C 423.92223,430.97704 439.5602,386.95464 461.07308,357.0947 C 466.64311,359.79688 441.59993,406.17128 429.24673,429.20362 C 419.11182,447.85481 401.36506,478.45744 392.80804,486.11015 C 376.3689,493.477 379.6511,479.32265 372.15087,478.71538 C 364.29934,478.07966 354.30639,506.30471 348.4776,515.94506 C 335.88002,540.53071 334.08871,551.01615 330.41728,551.84117 C 327.08155,552.59076 332.41565,530.6266 343.91621,505.27953 C 355.41677,479.93246 378.64113,440.31954 383.57396,439.65528 zM 181.25862,633.78746 C 183.59977,623.67936 189.35843,603.05795 194.83531,594.44092 C 197.51414,589.75712 199.73671,584.88789 202.74271,580.36218 C 212.79074,565.34336 223.49695,550.78755 233.9568,536.05834 C 243.2565,521.69352 255.79193,509.44181 264.75305,494.86218 C 275.08482,481.7683 284.56288,468.04907 294.36097,454.56096 C 300.2794,448.68519 321.7795,407.52948 326.58209,407.05655 C 317.44915,440.32708 291.43925,482.01722 273.55249,505.36218 C 253.08981,533.36212 230.49579,561.71634 211.5,590.71899 C 203.81703,599.49243 184.17583,634.68157 181.25862,633.78746 zM 523.56784,490.17284 C 528.28324,416.88241 556.56719,347.0778 574.01958,276.4284 C 579.64765,248.26421 586.18293,218.54655 577.6419,190.25783 C 571.83753,176.1823 538.61939,166.7089 538.15962,188.33865 C 537.7149,198.2828 525.58228,219.98105 520.44034,204.21419 C 523.68383,186.47208 538.68243,164.59725 548.22652,149.86014 C 560.23025,136.25907 584.51319,137.75998 594.12253,153.45047 C 605.72827,170.72204 600.37533,192.55601 598.71027,211.81946 C 588.1869,286.52686 552.8041,350.27612 541.94851,429.67723 C 538.13009,449.86787 536.49222,470.86342 528.39804,489.93485 C 526.97631,493.18906 523.031,494.9406 523.56784,490.17284 zM 318.16667,375.69551 C 317.8,375.32885 317.5,366.21491 317.5,355.44233 C 317.5,330.96875 316.29153,326.14467 304.90497,305.16418 C 303.28906,302.18674 289.3609,291.39113 290.65243,287.60635 C 292.03847,283.54463 309.22227,259.36218 310.72245,259.36218 C 331.60774,268.27856 336.90046,294.2987 337.91386,314.36218 C 339.47943,321.16219 333.62329,371.69296 318.16667,375.69551 zM 164.12781,355.9169 C 151.94784,340.09099 202.42795,271.54013 216.61523,251.36218 C 232.51815,228.32792 237.13827,222.81708 239.14815,224.48514 C 240.66985,225.74803 239.05519,229.52019 234.49228,235.36218 C 227.69749,246.39861 219.53038,256.41204 212,266.92626 C 202.84004,281.20329 191.9862,294.62378 185.48402,310.4179 C 184.50138,315.55985 183.03425,322.11449 186.94708,326.31246 C 192.24813,331.29254 208.22248,331.25333 217.13283,326.23836 C 236.95481,314.44046 254.70984,299.76866 272.11463,284.66698 C 279.66973,277.86588 283.5,275.78796 283.5,278.49045 C 262.75078,310.44583 239.40381,329.34049 217.11609,346.54336 C 197.93591,359.14055 176.17747,371.5735 164.12781,355.9169 zM 433.12142,264.62081 C 437.01894,259.67206 445.47148,236.12645 449.08246,233.38798 C 454.59826,238.74722 457.82609,244.44581 466.32689,245.36218 C 491.98724,244.3653 499.02646,222.70913 512.19023,205.36218 C 510.84381,223.99995 499.48756,240.71833 489.7691,256.18348 C 483.2429,264.99251 469.91827,275.83989 462.3496,278.50529 C 451.31246,282.40492 432.80889,279.53526 433.12142,264.62081 zM 379.5,267.0689 C 370.45875,264.6444 364.74085,260.61336 352.71585,248.18644 C 328.60777,223.27258 312.59801,207.55486 309.8428,206.09544 C 288.27157,194.66932 293.33498,196.6598 281.5395,195.33342 C 274.61821,198.06552 263.76707,199.89802 258.01613,214.26468 C 253.38893,225.36097 250.56639,227.98314 248.49254,223.11218 C 242.32171,210.54156 225.45744,190.33892 212.28011,186.40282 C 200.81581,190.74172 192.4724,200.5659 184.65581,209.59822 C 176.9335,218.77972 157.70265,236.19589 152.22176,238.97169 C 144.86811,243.3994 136.76708,247.57115 127.97814,244.92104 C 118.75323,240.49711 112.17067,231.33619 108.5,221.81256 C 111.03784,212.56209 116.23205,204.36242 119.01539,195.11218 C 121.25654,187.18941 123.23178,187.38665 127.6209,195.97149 C 131.89513,203.26428 136.83979,212.15422 146.11023,212.36218 C 158.48246,211.8184 167.23381,203.55045 176.1459,196.11596 C 178.97615,193.77638 186.31204,186.23718 192.44787,179.36218 C 214.95778,154.14056 219.47906,151.90231 234.77174,158.40993 C 249.56388,165.51131 251.17273,170.74922 261.91421,183.17443 C 267.72328,171.47971 288.00426,156.8439 297.78374,158.18429 C 307.25578,159.48254 325.73073,169.98362 344.95379,189.75431 C 360.34323,205.58217 373.32714,224.57431 394.26627,232.59402 C 403.56423,236.68973 416.84042,230.92459 426.8314,219.67073 C 430.70044,217.63377 431.2084,210.94579 435.06739,209.36218 C 437.69865,218.8403 430.06792,230.11947 425.94203,239.03824 C 421.00535,249.74421 412.70538,259.04213 402.5,265.04062 C 396.90955,267.74694 385.71118,268.73448 379.5,267.0689 z" />
  </g>
</svg>
