<?xml version="1.0" encoding="utf-8"?>
<svg version="1.1" baseProfile="full"  width="870" height="870" viewBox="0 0 870 870"
		 xmlns="http://www.w3.org/2000/svg" xmlns:xlink="http://www.w3.org/1999/xlink" xmlns:ev="http://www.w3.org/2001/xml-events">
<desc></desc>
<rect width="870" height="870" fill="#ffffff" cx="0" cy="0" />
<defs>
<rect id="p" width="30" height="30" />
</defs>
<g fill="#000000">
<use x="60" y="60" xlink:href="#p" />
<use x="60" y="90" xlink:href="#p" />
<use x="60" y="120" xlink:href="#p" />
<use x="60" y="150" xlink:href="#p" />
<use x="60" y="180" xlink:href="#p" />
<use x="60" y="210" xlink:href="#p" />
<use x="60" y="240" xlink:href="#p" />
<use x="60" y="300" xlink:href="#p" />
<use x="60" y="330" xlink:href="#p" />
<use x="60" y="390" xlink:href="#p" />
<use x="60" y="420" xlink:href="#p" />
<use x="60" y="600" xlink:href="#p" />
<use x="60" y="630" xlink:href="#p" />
<use x="60" y="660" xlink:href="#p" />
<use x="60" y="690" xlink:href="#p" />
<use x="60" y="720" xlink:href="#p" />
<use x="60" y="750" xlink:href="#p" />
<use x="60" y="780" xlink:href="#p" />
<use x="90" y="60" xlink:href="#p" />
<use x="90" y="240" xlink:href="#p" />
<use x="90" y="300" xlink:href="#p" />
<use x="90" y="420" xlink:href="#p" />
<use x="90" y="450" xlink:href="#p" />
<use x="90" y="510" xlink:href="#p" />
<use x="90" y="540" xlink:href="#p" />
<use x="90" y="600" xlink:href="#p" />
<use x="90" y="780" xlink:href="#p" />
<use x="120" y="60" xlink:href="#p" />
<use x="120" y="120" xlink:href="#p" />
<use x="120" y="150" xlink:href="#p" />
<use x="120" y="180" xlink:href="#p" />
<use x="120" y="240" xlink:href="#p" />
<use x="120" y="330" xlink:href="#p" />
<use x="120" y="360" xlink:href="#p" />
<use x="120" y="510" xlink:href="#p" />
<use x="120" y="540" xlink:href="#p" />
<use x="120" y="600" xlink:href="#p" />
<use x="120" y="660" xlink:href="#p" />
<use x="120" y="690" xlink:href="#p" />
<use x="120" y="720" xlink:href="#p" />
<use x="120" y="780" xlink:href="#p" />
<use x="150" y="60" xlink:href="#p" />
<use x="150" y="120" xlink:href="#p" />
<use x="150" y="150" xlink:href="#p" />
<use x="150" y="180" xlink:href="#p" />
<use x="150" y="240" xlink:href="#p" />
<use x="150" y="300" xlink:href="#p" />
<use x="150" y="330" xlink:href="#p" />
<use x="150" y="480" xlink:href="#p" />
<use x="150" y="510" xlink:href="#p" />
<use x="150" y="540" xlink:href="#p" />
<use x="150" y="600" xlink:href="#p" />
<use x="150" y="660" xlink:href="#p" />
<use x="150" y="690" xlink:href="#p" />
<use x="150" y="720" xlink:href="#p" />
<use x="150" y="780" xlink:href="#p" />
<use x="180" y="60" xlink:href="#p" />
<use x="180" y="120" xlink:href="#p" />
<use x="180" y="150" xlink:href="#p" />
<use x="180" y="180" xlink:href="#p" />
<use x="180" y="240" xlink:href="#p" />
<use x="180" y="300" xlink:href="#p" />
<use x="180" y="330" xlink:href="#p" />
<use x="180" y="360" xlink:href="#p" />
<use x="180" y="390" xlink:href="#p" />
<use x="180" y="600" xlink:href="#p" />
<use x="180" y="660" xlink:href="#p" />
<use x="180" y="690" xlink:href="#p" />
<use x="180" y="720" xlink:href="#p" />
<use x="180" y="780" xlink:href="#p" />
<use x="210" y="60" xlink:href="#p" />
<use x="210" y="240" xlink:href="#p" />
<use x="210" y="390" xlink:href="#p" />
<use x="210" y="420" xlink:href="#p" />
<use x="210" y="450" xlink:href="#p" />
<use x="210" y="480" xlink:href="#p" />
<use x="210" y="510" xlink:href="#p" />
<use x="210" y="540" xlink:href="#p" />
<use x="210" y="600" xlink:href="#p" />
<use x="210" y="780" xlink:href="#p" />
<use x="240" y="60" xlink:href="#p" />
<use x="240" y="90" xlink:href="#p" />
<use x="240" y="120" xlink:href="#p" />
<use x="240" y="150" xlink:href="#p" />
<use x="240" y="180" xlink:href="#p" />
<use x="240" y="210" xlink:href="#p" />
<use x="240" y="240" xlink:href="#p" />
<use x="240" y="300" xlink:href="#p" />
<use x="240" y="360" xlink:href="#p" />
<use x="240" y="420" xlink:href="#p" />
<use x="240" y="480" xlink:href="#p" />
<use x="240" y="540" xlink:href="#p" />
<use x="240" y="600" xlink:href="#p" />
<use x="240" y="630" xlink:href="#p" />
<use x="240" y="660" xlink:href="#p" />
<use x="240" y="690" xlink:href="#p" />
<use x="240" y="720" xlink:href="#p" />
<use x="240" y="750" xlink:href="#p" />
<use x="240" y="780" xlink:href="#p" />
<use x="270" y="390" xlink:href="#p" />
<use x="270" y="420" xlink:href="#p" />
<use x="270" y="450" xlink:href="#p" />
<use x="270" y="540" xlink:href="#p" />
<use x="300" y="60" xlink:href="#p" />
<use x="300" y="240" xlink:href="#p" />
<use x="300" y="270" xlink:href="#p" />
<use x="300" y="330" xlink:href="#p" />
<use x="300" y="360" xlink:href="#p" />
<use x="300" y="420" xlink:href="#p" />
<use x="300" y="450" xlink:href="#p" />
<use x="300" y="510" xlink:href="#p" />
<use x="300" y="540" xlink:href="#p" />
<use x="300" y="570" xlink:href="#p" />
<use x="300" y="660" xlink:href="#p" />
<use x="300" y="690" xlink:href="#p" />
<use x="300" y="750" xlink:href="#p" />
<use x="300" y="780" xlink:href="#p" />
<use x="330" y="90" xlink:href="#p" />
<use x="330" y="120" xlink:href="#p" />
<use x="330" y="210" xlink:href="#p" />
<use x="330" y="270" xlink:href="#p" />
<use x="330" y="300" xlink:href="#p" />
<use x="330" y="360" xlink:href="#p" />
<use x="330" y="420" xlink:href="#p" />
<use x="330" y="480" xlink:href="#p" />
<use x="330" y="510" xlink:href="#p" />
<use x="330" y="570" xlink:href="#p" />
<use x="330" y="600" xlink:href="#p" />
<use x="330" y="720" xlink:href="#p" />
<use x="330" y="780" xlink:href="#p" />
<use x="360" y="60" xlink:href="#p" />
<use x="360" y="90" xlink:href="#p" />
<use x="360" y="150" xlink:href="#p" />
<use x="360" y="240" xlink:href="#p" />
<use x="360" y="330" xlink:href="#p" />
<use x="360" y="420" xlink:href="#p" />
<use x="360" y="450" xlink:href="#p" />
<use x="360" y="480" xlink:href="#p" />
<use x="360" y="510" xlink:href="#p" />
<use x="360" y="540" xlink:href="#p" />
<use x="360" y="690" xlink:href="#p" />
<use x="360" y="720" xlink:href="#p" />
<use x="360" y="750" xlink:href="#p" />
<use x="390" y="120" xlink:href="#p" />
<use x="390" y="150" xlink:href="#p" />
<use x="390" y="210" xlink:href="#p" />
<use x="390" y="300" xlink:href="#p" />
<use x="390" y="330" xlink:href="#p" />
<use x="390" y="360" xlink:href="#p" />
<use x="390" y="450" xlink:href="#p" />
<use x="390" y="510" xlink:href="#p" />
<use x="390" y="540" xlink:href="#p" />
<use x="390" y="600" xlink:href="#p" />
<use x="390" y="690" xlink:href="#p" />
<use x="390" y="720" xlink:href="#p" />
<use x="390" y="750" xlink:href="#p" />
<use x="420" y="60" xlink:href="#p" />
<use x="420" y="150" xlink:href="#p" />
<use x="420" y="240" xlink:href="#p" />
<use x="420" y="270" xlink:href="#p" />
<use x="420" y="300" xlink:href="#p" />
<use x="420" y="360" xlink:href="#p" />
<use x="420" y="420" xlink:href="#p" />
<use x="420" y="450" xlink:href="#p" />
<use x="420" y="480" xlink:href="#p" />
<use x="420" y="510" xlink:href="#p" />
<use x="420" y="540" xlink:href="#p" />
<use x="420" y="720" xlink:href="#p" />
<use x="420" y="750" xlink:href="#p" />
<use x="420" y="780" xlink:href="#p" />
<use x="450" y="60" xlink:href="#p" />
<use x="450" y="90" xlink:href="#p" />
<use x="450" y="120" xlink:href="#p" />
<use x="450" y="150" xlink:href="#p" />
<use x="450" y="210" xlink:href="#p" />
<use x="450" y="270" xlink:href="#p" />
<use x="450" y="330" xlink:href="#p" />
<use x="450" y="360" xlink:href="#p" />
<use x="450" y="450" xlink:href="#p" />
<use x="450" y="540" xlink:href="#p" />
<use x="450" y="570" xlink:href="#p" />
<use x="450" y="600" xlink:href="#p" />
<use x="450" y="630" xlink:href="#p" />
<use x="480" y="90" xlink:href="#p" />
<use x="480" y="240" xlink:href="#p" />
<use x="480" y="330" xlink:href="#p" />
<use x="480" y="450" xlink:href="#p" />
<use x="480" y="480" xlink:href="#p" />
<use x="480" y="600" xlink:href="#p" />
<use x="480" y="660" xlink:href="#p" />
<use x="510" y="150" xlink:href="#p" />
<use x="510" y="270" xlink:href="#p" />
<use x="510" y="330" xlink:href="#p" />
<use x="510" y="360" xlink:href="#p" />
<use x="510" y="450" xlink:href="#p" />
<use x="510" y="480" xlink:href="#p" />
<use x="510" y="660" xlink:href="#p" />
<use x="510" y="690" xlink:href="#p" />
<use x="510" y="750" xlink:href="#p" />
<use x="540" y="90" xlink:href="#p" />
<use x="540" y="150" xlink:href="#p" />
<use x="540" y="180" xlink:href="#p" />
<use x="540" y="240" xlink:href="#p" />
<use x="540" y="270" xlink:href="#p" />
<use x="540" y="300" xlink:href="#p" />
<use x="540" y="420" xlink:href="#p" />
<use x="540" y="450" xlink:href="#p" />
<use x="540" y="540" xlink:href="#p" />
<use x="540" y="570" xlink:href="#p" />
<use x="540" y="600" xlink:href="#p" />
<use x="540" y="630" xlink:href="#p" />
<use x="540" y="660" xlink:href="#p" />
<use x="540" y="690" xlink:href="#p" />
<use x="540" y="780" xlink:href="#p" />
<use x="570" y="330" xlink:href="#p" />
<use x="570" y="360" xlink:href="#p" />
<use x="570" y="480" xlink:href="#p" />
<use x="570" y="510" xlink:href="#p" />
<use x="570" y="540" xlink:href="#p" />
<use x="570" y="660" xlink:href="#p" />
<use x="570" y="690" xlink:href="#p" />
<use x="570" y="720" xlink:href="#p" />
<use x="570" y="750" xlink:href="#p" />
<use x="600" y="60" xlink:href="#p" />
<use x="600" y="90" xlink:href="#p" />
<use x="600" y="120" xlink:href="#p" />
<use x="600" y="150" xlink:href="#p" />
<use x="600" y="180" xlink:href="#p" />
<use x="600" y="210" xlink:href="#p" />
<use x="600" y="240" xlink:href="#p" />
<use x="600" y="300" xlink:href="#p" />
<use x="600" y="360" xlink:href="#p" />
<use x="600" y="420" xlink:href="#p" />
<use x="600" y="480" xlink:href="#p" />
<use x="600" y="510" xlink:href="#p" />
<use x="600" y="540" xlink:href="#p" />
<use x="600" y="600" xlink:href="#p" />
<use x="600" y="660" xlink:href="#p" />
<use x="600" y="690" xlink:href="#p" />
<use x="600" y="750" xlink:href="#p" />
<use x="600" y="780" xlink:href="#p" />
<use x="630" y="60" xlink:href="#p" />
<use x="630" y="240" xlink:href="#p" />
<use x="630" y="330" xlink:href="#p" />
<use x="630" y="360" xlink:href="#p" />
<use x="630" y="390" xlink:href="#p" />
<use x="630" y="420" xlink:href="#p" />
<use x="630" y="480" xlink:href="#p" />
<use x="630" y="540" xlink:href="#p" />
<use x="630" y="660" xlink:href="#p" />
<use x="630" y="690" xlink:href="#p" />
<use x="630" y="720" xlink:href="#p" />
<use x="630" y="750" xlink:href="#p" />
<use x="660" y="60" xlink:href="#p" />
<use x="660" y="120" xlink:href="#p" />
<use x="660" y="150" xlink:href="#p" />
<use x="660" y="180" xlink:href="#p" />
<use x="660" y="240" xlink:href="#p" />
<use x="660" y="330" xlink:href="#p" />
<use x="660" y="360" xlink:href="#p" />
<use x="660" y="450" xlink:href="#p" />
<use x="660" y="480" xlink:href="#p" />
<use x="660" y="510" xlink:href="#p" />
<use x="660" y="540" xlink:href="#p" />
<use x="660" y="570" xlink:href="#p" />
<use x="660" y="600" xlink:href="#p" />
<use x="660" y="630" xlink:href="#p" />
<use x="660" y="660" xlink:href="#p" />
<use x="660" y="720" xlink:href="#p" />
<use x="660" y="750" xlink:href="#p" />
<use x="690" y="60" xlink:href="#p" />
<use x="690" y="120" xlink:href="#p" />
<use x="690" y="150" xlink:href="#p" />
<use x="690" y="180" xlink:href="#p" />
<use x="690" y="240" xlink:href="#p" />
<use x="690" y="330" xlink:href="#p" />
<use x="690" y="360" xlink:href="#p" />
<use x="690" y="390" xlink:href="#p" />
<use x="690" y="480" xlink:href="#p" />
<use x="690" y="600" xlink:href="#p" />
<use x="690" y="660" xlink:href="#p" />
<use x="690" y="690" xlink:href="#p" />
<use x="690" y="780" xlink:href="#p" />
<use x="720" y="60" xlink:href="#p" />
<use x="720" y="120" xlink:href="#p" />
<use x="720" y="150" xlink:href="#p" />
<use x="720" y="180" xlink:href="#p" />
<use x="720" y="240" xlink:href="#p" />
<use x="720" y="330" xlink:href="#p" />
<use x="720" y="390" xlink:href="#p" />
<use x="720" y="480" xlink:href="#p" />
<use x="720" y="510" xlink:href="#p" />
<use x="720" y="540" xlink:href="#p" />
<use x="720" y="720" xlink:href="#p" />
<use x="720" y="750" xlink:href="#p" />
<use x="750" y="60" xlink:href="#p" />
<use x="750" y="240" xlink:href="#p" />
<use x="750" y="330" xlink:href="#p" />
<use x="750" y="390" xlink:href="#p" />
<use x="750" y="450" xlink:href="#p" />
<use x="750" y="480" xlink:href="#p" />
<use x="750" y="540" xlink:href="#p" />
<use x="750" y="570" xlink:href="#p" />
<use x="750" y="660" xlink:href="#p" />
<use x="750" y="690" xlink:href="#p" />
<use x="750" y="720" xlink:href="#p" />
<use x="750" y="750" xlink:href="#p" />
<use x="780" y="60" xlink:href="#p" />
<use x="780" y="90" xlink:href="#p" />
<use x="780" y="120" xlink:href="#p" />
<use x="780" y="150" xlink:href="#p" />
<use x="780" y="180" xlink:href="#p" />
<use x="780" y="210" xlink:href="#p" />
<use x="780" y="240" xlink:href="#p" />
<use x="780" y="300" xlink:href="#p" />
<use x="780" y="360" xlink:href="#p" />
<use x="780" y="390" xlink:href="#p" />
<use x="780" y="420" xlink:href="#p" />
<use x="780" y="480" xlink:href="#p" />
<use x="780" y="510" xlink:href="#p" />
<use x="780" y="600" xlink:href="#p" />
<use x="780" y="690" xlink:href="#p" />
<use x="780" y="720" xlink:href="#p" />
<use x="780" y="750" xlink:href="#p" />
<use x="780" y="780" xlink:href="#p" />
</g>

</svg>